<svg width="14" height="14" viewBox="0 0 14 14" fill="none" xmlns="http://www.w3.org/2000/svg">
<path d="M0.363699 12.3632C0.0122307 12.7147 0.0122307 13.2845 0.363699 13.636C0.715167 13.9874 1.28502 13.9874 1.63649 13.636L0.363699 12.3632ZM7.63646 7.63597C7.98794 7.28449 7.98794 6.71473 7.63646 6.36325C7.28498 6.01177 6.71521 6.01177 6.36373 6.36325L7.63646 7.63597ZM6.36373 6.36325C6.01225 6.71473 6.01225 7.28449 6.36373 7.63597C6.71521 7.98745 7.28498 7.98745 7.63646 7.63597L6.36373 6.36325ZM13.6365 1.636C13.9879 1.28453 13.9879 0.714678 13.6365 0.36321C13.285 0.0117424 12.7152 0.0117424 12.3637 0.36321L13.6365 1.636ZM7.63646 6.36325C7.28498 6.01177 6.71521 6.01177 6.36373 6.36325C6.01225 6.71473 6.01225 7.28449 6.36373 7.63597L7.63646 6.36325ZM12.3637 13.636C12.7152 13.9874 13.285 13.9874 13.6365 13.636C13.9879 13.2845 13.9879 12.7147 13.6365 12.3632L12.3637 13.636ZM6.36373 7.63597C6.71521 7.98745 7.28498 7.98745 7.63646 7.63597C7.98794 7.28449 7.98794 6.71473 7.63646 6.36325L6.36373 7.63597ZM1.63649 0.36321C1.28502 0.0117424 0.715167 0.0117424 0.363699 0.36321C0.0122307 0.714678 0.0122307 1.28453 0.363699 1.636L1.63649 0.36321ZM1.63649 13.636L7.63646 7.63597L6.36373 6.36325L0.363699 12.3632L1.63649 13.636ZM7.63646 7.63597L13.6365 1.636L12.3637 0.36321L6.36373 6.36325L7.63646 7.63597ZM6.36373 7.63597L12.3637 13.636L13.6365 12.3632L7.63646 6.36325L6.36373 7.63597ZM7.63646 6.36325L1.63649 0.36321L0.363699 1.636L6.36373 7.63597L7.63646 6.36325Z" fill="#232323"/>
</svg>
